CalSansUI-SemiBold.ufo
<glyph name="comma" format="2">
  <advance width="274.975"/>
  <unicode hex="002C"/>
  <outline>
    <contour>
      <point x="87.85" y="-162.875" type="line"/>
      <point x="184.90000000000003" y="-132.225"/>
      <point x="230.575" y="-59.275"/>
      <point x="230.575" y="17.725" type="curve" smooth="yes"/>
      <point x="230.575" y="91.775"/>
      <point x="188.8" y="143.57500000000002"/>
      <point x="131.70000000000002" y="143.57500000000002" type="curve" smooth="yes"/>
      <point x="90.60000000000001" y="143.57500000000002"/>
      <point x="59.525" y="116.125"/>
      <point x="59.525" y="77.375" type="curve" smooth="yes"/>
      <point x="59.525" y="39.95"/>
      <point x="84.925" y="12.875"/>
      <point x="118.35000000000001" y="12.875" type="curve" smooth="yes"/>
      <point x="130.65" y="12.875"/>
      <point x="141.35" y="16.875"/>
      <point x="149.0" y="23.825" type="curve"/>
      <point x="151.325" y="23.825" type="line"/>
      <point x="152.65" y="19.85"/>
      <point x="152.97500000000002" y="15.550000000000002"/>
      <point x="152.97500000000002" y="6.900000000000001" type="curve" smooth="yes"/>
      <point x="152.97500000000002" y="-40.449999999999996"/>
      <point x="117.4" y="-76.69999999999999"/>
      <point x="62.525" y="-95.65" type="curve"/>
    </contour>
  </outline>
</glyph>
<glyph name="nine" format="2">
  <advance width="597.075"/>
  <unicode hex="0039"/>
  <outline>
    <contour>
      <point x="142.4" y="0.0" type="line"/>
      <point x="284.92499999999995" y="0.0" type="line"/>
      <point x="477.45" y="300.375" type="line" smooth="yes"/>
      <point x="521.25" y="368.2"/>
      <point x="538.0" y="422.65"/>
      <point x="538.0" y="478.20000000000005" type="curve" smooth="yes"/>
      <point x="538.0" y="614.275"/>
      <point x="436.25" y="713.0"/>
      <point x="289.15" y="713.0" type="curve" smooth="yes"/>
      <point x="143.025" y="713.0"/>
      <point x="39.925" y="614.275"/>
      <point x="39.925" y="477.225" type="curve" smooth="yes"/>
      <point x="39.925" y="320.0"/>
      <point x="165.575" y="224.60000000000002"/>
      <point x="308.3" y="264.275" type="curve"/>
      <point x="309.975" y="260.92499999999995" type="line"/>
    </contour>
    <contour>
      <point x="286.2" y="350.77500000000003" type="curve" smooth="yes"/>
      <point x="213.9" y="350.77500000000003"/>
      <point x="165.425" y="410.4"/>
      <point x="165.425" y="478.20000000000005" type="curve" smooth="yes"/>
      <point x="165.425" y="548.275"/>
      <point x="214.875" y="600.875"/>
      <point x="289.15" y="600.875" type="curve" smooth="yes"/>
      <point x="363.05" y="600.875"/>
      <point x="411.85" y="548.275"/>
      <point x="411.85" y="477.225" type="curve" smooth="yes"/>
      <point x="411.85" y="410.4"/>
      <point x="364.35" y="350.77500000000003"/>
    </contour>
  </outline>
</glyph>
<glyph name="B" format="2">
  <advance width="631.5"/>
  <unicode hex="0042"/>
  <anchor x="326.8" y="0.0" name="bottom"/>
  <anchor x="322.8" y="700.0" name="top"/>
  <outline>
    <contour>
      <point x="80.64999999999999" y="0.0" type="line"/>
      <point x="339.375" y="0.0" type="line" smooth="yes"/>
      <point x="487.15" y="0.0"/>
      <point x="583.1500000000001" y="74.7"/>
      <point x="583.1500000000001" y="192.35" type="curve" smooth="yes"/>
      <point x="583.1500000000001" y="305.475"/>
      <point x="493.825" y="357.85"/>
      <point x="423.25" y="368.075" type="curve"/>
      <point x="423.25" y="373.75" type="line"/>
      <point x="490.54999999999995" y="388.65000000000003"/>
      <point x="544.15" y="429.775"/>
      <point x="544.15" y="516.0" type="curve" smooth="yes"/>
      <point x="544.15" y="627.275"/>
      <point x="462.15" y="700.0"/>
      <point x="314.375" y="700.0" type="curve" smooth="yes"/>
      <point x="80.64999999999999" y="700.0" type="line"/>
    </contour>
    <contour>
      <point x="202.45" y="115.82499999999999" type="line"/>
      <point x="202.45" y="298.425" type="line"/>
      <point x="334.425" y="298.425" type="line" smooth="yes"/>
      <point x="408.875" y="298.425"/>
      <point x="459.675" y="270.55"/>
      <point x="459.675" y="206.775" type="curve" smooth="yes"/>
      <point x="459.675" y="141.325"/>
      <point x="408.875" y="115.82499999999999"/>
      <point x="334.425" y="115.82499999999999" type="curve" smooth="yes"/>
    </contour>
    <contour>
      <point x="202.45" y="409.57500000000005" type="line"/>
      <point x="202.45" y="584.175" type="line"/>
      <point x="309.425" y="584.175" type="line" smooth="yes"/>
      <point x="383.875" y="584.175"/>
      <point x="420.675" y="558.9749999999999"/>
      <point x="420.675" y="497.55" type="curve" smooth="yes"/>
      <point x="420.675" y="434.825"/>
      <point x="383.875" y="409.57500000000005"/>
      <point x="309.425" y="409.57500000000005" type="curve" smooth="yes"/>
    </contour>
  </outline>
</glyph>
<glyph name="C" format="2">
  <advance width="686.725"/>
  <unicode hex="0043"/>
  <anchor x="404.4" y="0.0" name="bottom"/>
  <anchor x="507.4" y="0.0" name="ogonek"/>
  <anchor x="404.4" y="700.0" name="top"/>
  <outline>
    <contour>
      <point x="404.4" y="-13.0" type="curve" smooth="yes"/>
      <point x="523.8" y="-13.0"/>
      <point x="609.775" y="33.725"/>
      <point x="665.05" y="100.65" type="curve"/>
      <point x="576.025" y="177.325" type="line"/>
      <point x="533.125" y="129.45"/>
      <point x="476.475" y="104.85"/>
      <point x="407.4" y="104.85" type="curve" smooth="yes"/>
      <point x="263.825" y="104.85"/>
      <point x="166.47500000000002" y="208.325"/>
      <point x="166.47500000000002" y="349.0" type="curve" smooth="yes"/>
      <point x="166.47500000000002" y="489.35"/>
      <point x="260.575" y="595.15"/>
      <point x="404.4" y="595.15" type="curve" smooth="yes"/>
      <point x="477.70000000000005" y="595.15"/>
      <point x="530.175" y="571.125"/>
      <point x="575.1" y="520.625" type="curve"/>
      <point x="662.425" y="601.65" type="line"/>
      <point x="597.4" y="678.675"/>
      <point x="507.35" y="713.0"/>
      <point x="404.4" y="713.0" type="curve" smooth="yes"/>
      <point x="192.3" y="713.0"/>
      <point x="41.675" y="550.9749999999999"/>
      <point x="41.675" y="349.0" type="curve" smooth="yes"/>
      <point x="41.675" y="147.7"/>
      <point x="198.35000000000002" y="-13.0"/>
    </contour>
  </outline>
</glyph>
<glyph name="F" format="2">
  <advance width="553.075"/>
  <unicode hex="0046"/>
  <anchor x="141.55" y="0.0" name="bottom"/>
  <anchor x="113.45" y="0.0" name="ogonek"/>
  <anchor x="301.075" y="700.0" name="top"/>
  <outline>
    <contour>
      <point x="80.64999999999999" y="0.0" type="line"/>
      <point x="202.45" y="0.0" type="line"/>
      <point x="202.45" y="290.75" type="line"/>
      <point x="482.42499999999995" y="290.75" type="line"/>
      <point x="482.42499999999995" y="406.575" type="line"/>
      <point x="202.45" y="406.575" type="line"/>
      <point x="202.45" y="584.175" type="line"/>
      <point x="487.42499999999995" y="584.175" type="line"/>
      <point x="487.42499999999995" y="700.0" type="line"/>
      <point x="80.64999999999999" y="700.0" type="line"/>
    </contour>
  </outline>
</glyph>
<glyph name="R" format="2">
  <advance width="613.775"/>
  <unicode hex="0052"/>
  <anchor x="320.65" y="0.0" name="bottom"/>
  <anchor x="444.925" y="0.0" name="ogonek"/>
  <anchor x="295.65" y="700.0" name="top"/>
  <outline>
    <contour>
      <point x="80.64999999999999" y="0.0" type="line"/>
      <point x="201.79999999999998" y="0.0" type="line"/>
      <point x="201.79999999999998" y="288.15" type="line"/>
      <point x="262.05" y="288.15" type="line"/>
      <point x="272.32500000000005" y="262.5"/>
      <point x="283.65" y="243.175"/>
      <point x="293.975" y="227.525" type="curve" smooth="yes"/>
      <point x="444.925" y="0.0" type="line"/>
      <point x="589.125" y="0.0" type="line"/>
      <point x="391.5" y="299.875" type="line"/>
      <point x="492.225" y="318.625"/>
      <point x="564.375" y="385.65"/>
      <point x="564.375" y="494.22499999999997" type="curve" smooth="yes"/>
      <point x="564.375" y="622.85"/>
      <point x="464.475" y="700.0"/>
      <point x="325.325" y="700.0" type="curve" smooth="yes"/>
      <point x="80.64999999999999" y="700.0" type="line"/>
    </contour>
    <contour>
      <point x="201.79999999999998" y="400.6" type="line"/>
      <point x="201.79999999999998" y="584.175" type="line"/>
      <point x="307.25" y="584.175" type="line" smooth="yes"/>
      <point x="393.8" y="584.175"/>
      <point x="440.575" y="560.275"/>
      <point x="440.575" y="493.55" type="curve" smooth="yes"/>
      <point x="440.575" y="425.175"/>
      <point x="393.8" y="400.6"/>
      <point x="307.25" y="400.6" type="curve" smooth="yes"/>
    </contour>
  </outline>
</glyph>
<glyph name="X" format="2">
  <advance width="660.525"/>
  <unicode hex="0058"/>
  <anchor x="330.425" y="0.0" name="bottom"/>
  <anchor x="330.425" y="700.0" name="top"/>
  <outline>
    <contour>
      <point x="20.65" y="0.0" type="line"/>
      <point x="166.175" y="0.0" type="line"/>
      <point x="330.425" y="250.92499999999998" type="line"/>
      <point x="334.425" y="250.92499999999998" type="line"/>
      <point x="494.675" y="0.0" type="line"/>
      <point x="642.875" y="0.0" type="line"/>
      <point x="407.025" y="348.0" type="line"/>
      <point x="631.875" y="700.0" type="line"/>
      <point x="489.675" y="700.0" type="line"/>
      <point x="334.425" y="448.75" type="line"/>
      <point x="330.425" y="448.75" type="line"/>
      <point x="178.175" y="700.0" type="line"/>
      <point x="31.65" y="700.0" type="line"/>
      <point x="257.15" y="351.0" type="line"/>
    </contour>
  </outline>
</glyph>
<glyph name="Z" format="2">
  <advance width="645.075"/>
  <unicode hex="005A"/>
  <anchor x="322.7" y="0.0" name="bottom"/>
  <anchor x="322.7" y="350.0" name="center"/>
  <anchor x="322.7" y="700.0" name="top"/>
  <outline>
    <contour>
      <point x="40.65" y="0.0" type="line"/>
      <point x="600.425" y="0.0" type="line"/>
      <point x="600.425" y="114.475" type="line"/>
      <point x="235.5" y="114.475" type="line"/>
      <point x="235.5" y="116.8" type="line"/>
      <point x="249.175" y="129.175"/>
      <point x="260.825" y="144.175"/>
      <point x="276.35" y="168.0" type="curve" smooth="yes"/>
      <point x="600.425" y="685.0" type="line"/>
      <point x="600.425" y="700.0" type="line"/>
      <point x="59.65" y="700.0" type="line"/>
      <point x="59.65" y="584.175" type="line"/>
      <point x="402.625" y="584.175" type="line"/>
      <point x="402.625" y="581.85" type="line"/>
      <point x="390.29999999999995" y="571.5"/>
      <point x="380.0" y="557.85"/>
      <point x="365.125" y="535.025" type="curve" smooth="yes"/>
      <point x="40.65" y="15.0" type="line"/>
    </contour>
  </outline>
</glyph>
<glyph name="g" format="2">
  <advance width="644.575"/>
  <unicode hex="0067"/>
  <anchor x="307.3" y="-220.0" name="bottom"/>
  <anchor x="395.6" y="-220.0" name="ogonek"/>
  <anchor x="303.475" y="500.125" name="top"/>
  <outline>
    <contour>
      <point x="306.625" y="-233.0" type="curve" smooth="yes"/>
      <point x="451.45" y="-232.02499999999998"/>
      <point x="573.925" y="-139.7"/>
      <point x="573.925" y="22.924999999999997" type="curve" smooth="yes"/>
      <point x="573.925" y="500.125" type="line"/>
      <point x="460.8" y="500.125" type="line"/>
      <point x="460.8" y="418.92500000000007" type="line"/>
      <point x="454.8" y="418.92500000000007" type="line"/>
      <point x="431.25" y="475.55"/>
      <point x="367.525" y="513.125"/>
      <point x="289.67499999999995" y="513.125" type="curve" smooth="yes"/>
      <point x="142.625" y="513.125"/>
      <point x="38.7" y="393.0"/>
      <point x="38.7" y="250.05" type="curve" smooth="yes"/>
      <point x="38.7" y="107.775"/>
      <point x="142.625" y="-11.7"/>
      <point x="289.67499999999995" y="-11.7" type="curve" smooth="yes"/>
      <point x="363.85" y="-11.7"/>
      <point x="428.225" y="26.2"/>
      <point x="450.8" y="81.475" type="curve"/>
      <point x="456.8" y="81.475" type="line"/>
      <point x="456.8" y="27.675" type="line" smooth="yes"/>
      <point x="457.125" y="-65.1"/>
      <point x="388.25" y="-124.25"/>
      <point x="304.875" y="-124.25" type="curve" smooth="yes"/>
      <point x="229.9" y="-124.25"/>
      <point x="184.32500000000002" y="-96.85"/>
      <point x="147.525" y="-38.175" type="curve"/>
      <point x="52.425000000000004" y="-106.4" type="line"/>
      <point x="122.475" y="-210.675"/>
      <point x="205.425" y="-233.325"/>
    </contour>
    <contour>
      <point x="307.125" y="95.375" type="curve" smooth="yes"/>
      <point x="217.4" y="95.375"/>
      <point x="155.82500000000002" y="163.2"/>
      <point x="155.82500000000002" y="251.05" type="curve" smooth="yes"/>
      <point x="155.82500000000002" y="338.875"/>
      <point x="217.4" y="406.04999999999995"/>
      <point x="307.125" y="406.04999999999995" type="curve" smooth="yes"/>
      <point x="397.5" y="406.04999999999995"/>
      <point x="456.475" y="337.9"/>
      <point x="456.475" y="250.05" type="curve" smooth="yes"/>
      <point x="456.475" y="162.875"/>
      <point x="397.5" y="95.375"/>
    </contour>
  </outline>
</glyph>
<glyph name="o" format="2">
  <advance width="599.375"/>
  <unicode hex="006F"/>
  <anchor x="299.525" y="0.0" name="bottom"/>
  <anchor x="299.525" y="254.79999999999998" name="center"/>
  <anchor x="347.375" y="-3.375" name="ogonek"/>
  <anchor x="299.525" y="500.125" name="top"/>
  <anchor x="465.175" y="500.125" name="topright"/>
  <outline>
    <contour>
      <point x="299.525" y="-13.0" type="curve" smooth="yes"/>
      <point x="449.92499999999995" y="-13.0"/>
      <point x="560.675" y="99.05000000000001"/>
      <point x="560.675" y="250.05" type="curve" smooth="yes"/>
      <point x="560.675" y="401.40000000000003"/>
      <point x="449.92499999999995" y="513.125"/>
      <point x="299.525" y="513.125" type="curve" smooth="yes"/>
      <point x="149.45" y="513.125"/>
      <point x="38.7" y="401.07500000000005"/>
      <point x="38.7" y="249.4" type="curve" smooth="yes"/>
      <point x="38.7" y="98.72500000000001"/>
      <point x="149.45" y="-13.0"/>
    </contour>
    <contour>
      <point x="299.525" y="94.07499999999999" type="curve" smooth="yes"/>
      <point x="214.75" y="94.07499999999999"/>
      <point x="155.82500000000002" y="157.20000000000002"/>
      <point x="155.82500000000002" y="249.72500000000002" type="curve" smooth="yes"/>
      <point x="155.82500000000002" y="343.57500000000005"/>
      <point x="214.75" y="406.04999999999995"/>
      <point x="299.525" y="406.04999999999995" type="curve" smooth="yes"/>
      <point x="384.3" y="406.04999999999995"/>
      <point x="443.55" y="342.925"/>
      <point x="443.55" y="249.72500000000002" type="curve" smooth="yes"/>
      <point x="443.55" y="156.55"/>
      <point x="384.3" y="94.07499999999999"/>
    </contour>
  </outline>
</glyph>
<glyph name="logicalnot" format="2">
  <advance width="596.0"/>
  <unicode hex="00AC"/>
  <outline>
    <contour>
      <point x="393.275" y="188.0" type="line"/>
      <point x="500.275" y="188.0" type="line"/>
      <point x="500.275" y="396.75" type="line"/>
      <point x="86.275" y="396.75" type="line"/>
      <point x="86.275" y="299.09999999999997" type="line"/>
      <point x="393.275" y="299.09999999999997" type="line"/>
    </contour>
  </outline>
</glyph>
<glyph name="Lslash" format="2">
  <advance width="533.725"/>
  <unicode hex="0141"/>
  <anchor x="289.75" y="0.0" name="bottom"/>
  <anchor x="314.75" y="370.0" name="center"/>
  <anchor x="477.75" y="0.0" name="ogonek"/>
  <anchor x="141.45" y="700.0" name="top"/>
  <anchor x="304.75" y="700.0" name="topright"/>
  <outline>
    <contour>
      <point x="11.95" y="205.3" type="line"/>
      <point x="137.45" y="292.75" type="line"/>
      <point x="147.45" y="291.4" type="line"/>
      <point x="318.45" y="403.4" type="line"/>
      <point x="318.45" y="528.85" type="line"/>
      <point x="152.15" y="409.85" type="line"/>
      <point x="137.45" y="411.20000000000005" type="line"/>
      <point x="11.95" y="323.75" type="line"/>
    </contour>
    <component base="L" xOffset="3.2499999999999996"/>
  </outline>
</glyph>
<glyph name="ringcomb" format="2">
  <unicode hex="030A"/>
  <anchor x="0.0" y="500.125" name="_top"/>
  <anchor x="0.0" y="729.45" name="top"/>
  <outline>
    <contour>
      <point x="0.0" y="556.45" type="curve" smooth="yes"/>
      <point x="59.0" y="556.45"/>
      <point x="107.325" y="603.45"/>
      <point x="107.325" y="661.45" type="curve" smooth="yes"/>
      <point x="107.325" y="719.45"/>
      <point x="59.0" y="766.45"/>
      <point x="0.0" y="766.45" type="curve" smooth="yes"/>
      <point x="-58.0" y="766.45"/>
      <point x="-107.325" y="719.45"/>
      <point x="-107.325" y="661.45" type="curve" smooth="yes"/>
      <point x="-107.325" y="603.45"/>
      <point x="-58.0" y="556.45"/>
    </contour>
    <contour>
      <point x="0.0" y="616.95" type="curve" smooth="yes"/>
      <point x="-24.224999999999998" y="616.95"/>
      <point x="-43.525" y="637.55"/>
      <point x="-43.525" y="661.45" type="curve" smooth="yes"/>
      <point x="-43.525" y="686.0"/>
      <point x="-24.224999999999998" y="704.95"/>
      <point x="0.0" y="704.95" type="curve" smooth="yes"/>
      <point x="24.224999999999998" y="704.95"/>
      <point x="43.525" y="686.0"/>
      <point x="43.525" y="661.45" type="curve" smooth="yes"/>
      <point x="43.525" y="637.55"/>
      <point x="24.224999999999998" y="616.95"/>
    </contour>
  </outline>
</glyph>
<glyph name="breveinvertedcomb" format="2">
  <unicode hex="0311"/>
  <anchor x="0.0" y="500.125" name="_top"/>
  <anchor x="0.0" y="666.75" name="top"/>
  <outline>
    <contour>
      <point x="-151.875" y="553.0" type="curve"/>
      <point x="-67.95" y="553.0" type="line"/>
      <point x="-69.275" y="592.7"/>
      <point x="-42.875" y="620.875"/>
      <point x="0.0" y="620.875" type="curve" smooth="yes"/>
      <point x="41.9" y="620.875"/>
      <point x="69.275" y="592.7"/>
      <point x="67.95" y="553.0" type="curve"/>
      <point x="151.875" y="553.0" type="line"/>
      <point x="151.875" y="636.75"/>
      <point x="92.15" y="692.075"/>
      <point x="0.0" y="692.075" type="curve" smooth="yes"/>
      <point x="-92.825" y="692.075"/>
      <point x="-151.875" y="636.75"/>
    </contour>
  </outline>
</glyph>
<glyph name="horncomb" format="2">
  <unicode hex="031B"/>
  <anchor x="180.0" y="500.125" name="_topright"/>
  <outline>
    <contour>
      <point x="174.55" y="411.55" type="curve" smooth="yes"/>
      <point x="241.525" y="411.55"/>
      <point x="310.975" y="466.42499999999995"/>
      <point x="310.975" y="552.55" type="curve" smooth="yes"/>
      <point x="310.975" y="578.1"/>
      <point x="305.975" y="602.55"/>
      <point x="300.975" y="617.55" type="curve"/>
      <point x="200.625" y="617.55" type="line"/>
      <point x="206.95" y="600.55"/>
      <point x="210.6" y="582.55"/>
      <point x="210.6" y="565.925" type="curve" smooth="yes"/>
      <point x="211.275" y="527.825"/>
      <point x="195.3" y="499.47499999999997"/>
      <point x="138.65" y="499.47499999999997" type="curve" smooth="yes"/>
      <point x="99.65" y="499.47499999999997"/>
      <point x="70.0" y="513.125"/>
      <point x="14.35" y="513.125" type="curve"/>
      <point x="2.0" y="426.55" type="line"/>
      <point x="101.0" y="426.55"/>
      <point x="96.0" y="411.55"/>
    </contour>
  </outline>
</glyph>
<glyph name="cedillacomb" format="2">
  <unicode hex="0327"/>
  <anchor x="-3.7750000000000004" y="1.9499999999999997" name="_bottom"/>
  <anchor x="56.949999999999996" y="-204.72500000000002" name="bottom"/>
  <outline>
    <contour>
      <point x="-23.425" y="-220.325" type="curve" smooth="yes"/>
      <point x="30.474999999999998" y="-220.325"/>
      <point x="79.85" y="-188.04999999999998"/>
      <point x="79.85" y="-127.325" type="curve" smooth="yes"/>
      <point x="79.85" y="-83.025"/>
      <point x="49.575" y="-42.925"/>
      <point x="-6.900000000000001" y="-48.325" type="curve"/>
      <point x="14.375" y="-65.575" type="line"/>
      <point x="46.675" y="1.9499999999999997" type="line"/>
      <point x="-5.075" y="16.65" type="line"/>
      <point x="-52.75" y="-93.4" type="line"/>
      <point x="-49.075" y="-96.4" type="line"/>
      <point x="-42.75" y="-94.4"/>
      <point x="-36.099999999999994" y="-93.4"/>
      <point x="-26.1" y="-93.4" type="curve" smooth="yes"/>
      <point x="-8.25" y="-93.4"/>
      <point x="7.674999999999999" y="-103.025"/>
      <point x="7.674999999999999" y="-121.275" type="curve" smooth="yes"/>
      <point x="7.674999999999999" y="-142.27499999999998"/>
      <point x="-8.350000000000001" y="-153.175"/>
      <point x="-29.5" y="-153.175" type="curve" smooth="yes"/>
      <point x="-47.1" y="-153.175"/>
      <point x="-62.375" y="-145.52499999999998"/>
      <point x="-75.0" y="-132.925" type="curve"/>
      <point x="-116.45000000000002" y="-186.7" type="line"/>
      <point x="-83.325" y="-213.4"/>
      <point x="-61.099999999999994" y="-220.325"/>
    </contour>
  </outline>
</glyph>
<glyph name="dong" format="2">
  <advance width="588.6999999999999"/>
  <unicode hex="20AB"/>
  <anchor x="287.775" y="45.05221" name="_bar"/>
  <outline>
    <contour>
      <point x="265.25" y="103.075" type="curve" smooth="yes"/>
      <point x="331.575" y="103.075"/>
      <point x="374.25" y="135.875"/>
      <point x="399.75" y="187.075" type="curve"/>
      <point x="405.75" y="187.075" type="line"/>
      <point x="405.75" y="113.07500000000002" type="line"/>
      <point x="518.875" y="113.07500000000002" type="line"/>
      <point x="518.875" y="700.0" type="line"/>
      <point x="401.75" y="700.0" type="line"/>
      <point x="401.75" y="454.725" type="line"/>
      <point x="395.42499999999995" y="454.725" type="line"/>
      <point x="370.9" y="506.65"/>
      <point x="327.25" y="539.1"/>
      <point x="265.25" y="539.1" type="curve" smooth="yes"/>
      <point x="139.225" y="539.1"/>
      <point x="50.0" y="449.425"/>
      <point x="50.0" y="317.05" type="curve" smooth="yes"/>
      <point x="50.0" y="192.425"/>
      <point x="139.225" y="103.075"/>
    </contour>
    <contour>
      <point x="284.825" y="202.10000000000002" type="curve" smooth="yes"/>
      <point x="221.7" y="202.10000000000002"/>
      <point x="167.125" y="246.9"/>
      <point x="167.125" y="318.04999999999995" type="curve" smooth="yes"/>
      <point x="167.125" y="395.275"/>
      <point x="221.7" y="440.075"/>
      <point x="284.825" y="440.075" type="curve" smooth="yes"/>
      <point x="351.85" y="440.075"/>
      <point x="402.07500000000005" y="393.975"/>
      <point x="402.07500000000005" y="317.05" type="curve" smooth="yes"/>
      <point x="402.07500000000005" y="247.875"/>
      <point x="351.85" y="202.10000000000002"/>
    </contour>
    <component base="strokeshortcomb" xScale="1.3590975" yScale="0.80371" xOffset="287.775" yOffset="-237.04999999999998"/>
    <component base="strokeshortcomb" xScale="0.7948475" yScale="0.8035075" xOffset="427.525" yOffset="328.025"/>
  </outline>
</glyph>
<glyph name="cedi" format="2">
  <advance width="656.725"/>
  <unicode hex="20B5"/>
  <outline>
    <contour>
      <point x="374.4" y="27.0" type="curve" smooth="yes"/>
      <point x="493.8" y="27.0"/>
      <point x="579.7750000000001" y="73.725"/>
      <point x="635.05" y="140.64999999999998" type="curve"/>
      <point x="546.0250000000001" y="217.325" type="line"/>
      <point x="503.125" y="169.45"/>
      <point x="446.475" y="144.85000000000002"/>
      <point x="377.4" y="144.85000000000002" type="curve" smooth="yes"/>
      <point x="263.825" y="144.85000000000002"/>
      <point x="166.47500000000002" y="208.325"/>
      <point x="166.47500000000002" y="349.0" type="curve" smooth="yes"/>
      <point x="166.47500000000002" y="489.35"/>
      <point x="260.575" y="555.15"/>
      <point x="374.4" y="555.15" type="curve" smooth="yes"/>
      <point x="447.70000000000005" y="555.15"/>
      <point x="500.175" y="531.125"/>
      <point x="545.1" y="480.625" type="curve"/>
      <point x="632.425" y="561.65" type="line"/>
      <point x="567.4" y="638.675"/>
      <point x="477.35" y="673.0"/>
      <point x="374.4" y="673.0" type="curve" smooth="yes"/>
      <point x="192.3" y="673.0"/>
      <point x="41.675" y="550.9749999999999"/>
      <point x="41.675" y="349.0" type="curve" smooth="yes"/>
      <point x="41.675" y="147.7"/>
      <point x="198.35000000000002" y="27.0"/>
    </contour>
    <contour>
      <point x="334.925" y="-69.0" type="line"/>
      <point x="419.07500000000005" y="-69.0" type="line"/>
      <point x="419.07500000000005" y="775.0" type="line"/>
      <point x="334.925" y="775.0" type="line"/>
    </contour>
  </outline>
</glyph>
<glyph name="lari" format="2">
  <advance width="711.925"/>
  <unicode hex="20BE"/>
  <outline>
    <contour>
      <point x="573.425" y="395.325" type="curve"/>
      <point x="698.6" y="395.325" type="line"/>
      <point x="675.925" y="565.775"/>
      <point x="535.525" y="673.0"/>
      <point x="372.125" y="673.0" type="curve" smooth="yes"/>
      <point x="191.4" y="673.0"/>
      <point x="42.65" y="541.475"/>
      <point x="42.65" y="361.275" type="curve" smooth="yes"/>
      <point x="42.65" y="279.45000000000005"/>
      <point x="81.8" y="194.9"/>
      <point x="165.5" y="146.8" type="curve"/>
      <point x="165.5" y="144.475" type="line"/>
      <point x="20.65" y="144.475" type="line"/>
      <point x="20.65" y="30.0" type="line"/>
      <point x="663.2" y="30.0" type="line"/>
      <point x="663.2" y="144.475" type="line"/>
      <point x="405.5" y="144.475" type="line" smooth="yes"/>
      <point x="263.725" y="144.475"/>
      <point x="166.47500000000002" y="225.2"/>
      <point x="166.47500000000002" y="361.275" type="curve" smooth="yes"/>
      <point x="166.47500000000002" y="500.67499999999995"/>
      <point x="265.725" y="557.85"/>
      <point x="372.125" y="557.85" type="curve" smooth="yes"/>
      <point x="462.525" y="557.85"/>
      <point x="553.425" y="519.3"/>
    </contour>
    <contour>
      <point x="393.75" y="775.0" type="line"/>
      <point x="393.75" y="395.0" type="line"/>
      <point x="477.25" y="395.0" type="line"/>
      <point x="477.25" y="775.0" type="line"/>
    </contour>
    <contour>
      <point x="259.25" y="775.0" type="line"/>
      <point x="259.25" y="395.0" type="line"/>
      <point x="342.75" y="395.0" type="line"/>
      <point x="342.75" y="775.0" type="line"/>
    </contour>
  </outline>
</glyph>
<glyph name="summation" format="2">
  <advance width="566.75"/>
  <unicode hex="2211"/>
  <outline>
    <contour>
      <point x="207.525" y="-91.89999999999999" type="curve" smooth="yes"/>
      <point x="397.55" y="253.0" type="line"/>
      <point x="213.6" y="571.9" type="line" smooth="yes"/>
      <point x="202.95" y="590.9"/>
      <point x="195.60000000000002" y="600.9"/>
      <point x="190.60000000000002" y="603.9" type="curve"/>
      <point x="192.60000000000002" y="607.9" type="line"/>
      <point x="197.60000000000002" y="605.9"/>
      <point x="211.6" y="606.9"/>
      <point x="235.60000000000002" y="606.9" type="curve" smooth="yes"/>
      <point x="531.5" y="606.9" type="line"/>
      <point x="531.5" y="700.0" type="line"/>
      <point x="20.0" y="700.0" type="line"/>
      <point x="20.0" y="685.0" type="line"/>
      <point x="290.0" y="233.625" type="line"/>
      <point x="290.0" y="259.625" type="line"/>
      <point x="20.0" y="-205.0" type="line"/>
      <point x="20.0" y="-220.0" type="line"/>
      <point x="531.5" y="-220.0" type="line"/>
      <point x="531.5" y="-126.89999999999999" type="line"/>
      <point x="229.525" y="-126.89999999999999" type="line" smooth="yes"/>
      <point x="215.525" y="-126.89999999999999"/>
      <point x="195.525" y="-124.9"/>
      <point x="187.525" y="-127.9" type="curve"/>
      <point x="184.525" y="-123.9" type="line"/>
      <point x="194.525" y="-116.89999999999999"/>
      <point x="202.2" y="-101.9"/>
    </contour>
  </outline>
</glyph>
<glyph name="notequal" format="2">
  <advance width="596.0"/>
  <unicode hex="2260"/>
  <outline>
    <contour>
      <point x="176.85" y="216.0" type="line"/>
      <point x="277.65" y="216.0" type="line"/>
      <point x="427.35" y="443.0" type="line"/>
      <point x="326.55" y="443.0" type="line"/>
    </contour>
    <contour>
      <point x="87.85" y="70.0" type="line"/>
      <point x="194.35" y="70.0" type="line"/>
      <point x="284.35" y="216.0" type="line"/>
      <point x="178.85" y="216.0" type="line"/>
    </contour>
    <contour>
      <point x="319.85" y="443.0" type="line"/>
      <point x="425.35" y="443.0" type="line"/>
      <point x="498.35" y="561.0" type="line"/>
      <point x="392.85" y="561.0" type="line"/>
    </contour>
    <component base="equal"/>
  </outline>
</glyph>
<glyph name="whiteSmallSquare" format="2">
  <advance width="384.0"/>
  <unicode hex="25AB"/>
  <outline>
    <contour>
      <point x="90.0" y="261.5" type="line"/>
      <point x="294.0" y="261.5" type="line"/>
      <point x="294.0" y="464.5" type="line"/>
      <point x="90.0" y="464.5" type="line"/>
    </contour>
    <contour>
      <point x="146.0" y="317.5" type="line"/>
      <point x="146.0" y="408.5" type="line"/>
      <point x="238.0" y="408.5" type="line"/>
      <point x="238.0" y="317.5" type="line"/>
    </contour>
  </outline>
</glyph>
<glyph name="upWhiteSmallTriangle" format="2">
  <advance width="361.25"/>
  <unicode hex="25B5"/>
  <outline>
    <contour>
      <point x="45.0" y="249.47500000000002" type="line"/>
      <point x="316.25" y="249.47500000000002" type="line"/>
      <point x="180.125" y="484.59999999999997" type="line"/>
    </contour>
    <contour>
      <point x="130.625" y="298.97499999999997" type="line"/>
      <point x="180.125" y="390.325" type="line"/>
      <point x="229.625" y="298.97499999999997" type="line"/>
    </contour>
  </outline>
</glyph>
<glyph name="whiteBullet" format="2">
  <advance width="361.55"/>
  <unicode hex="25E6"/>
  <outline>
    <contour>
      <point x="180.775" y="246.625" type="curve" smooth="yes"/>
      <point x="250.325" y="246.625"/>
      <point x="298.175" y="300.15"/>
      <point x="298.175" y="362.025" type="curve" smooth="yes"/>
      <point x="298.175" y="425.575"/>
      <point x="250.325" y="477.75"/>
      <point x="180.775" y="477.75" type="curve" smooth="yes"/>
      <point x="111.225" y="477.75"/>
      <point x="63.375" y="424.225"/>
      <point x="63.375" y="362.35" type="curve" smooth="yes"/>
      <point x="63.375" y="298.8"/>
      <point x="111.225" y="246.625"/>
    </contour>
    <contour>
      <point x="180.775" y="305.15" type="curve" smooth="yes"/>
      <point x="149.675" y="305.15"/>
      <point x="124.25" y="330.25"/>
      <point x="124.25" y="362.35" type="curve" smooth="yes"/>
      <point x="124.25" y="390.775"/>
      <point x="149.35" y="419.225"/>
      <point x="180.775" y="419.225" type="curve" smooth="yes"/>
      <point x="211.875" y="419.225"/>
      <point x="237.3" y="394.125"/>
      <point x="237.3" y="362.025" type="curve" smooth="yes"/>
      <point x="237.3" y="333.6"/>
      <point x="212.2" y="305.15"/>
    </contour>
  </outline>
</glyph>
<glyph name="Saltillo" format="2">
  <advance width="271.75"/>
  <unicode hex="A78B"/>
  <outline>
    <contour>
      <point x="97.0" y="193.0" type="line"/>
      <point x="174.75" y="193.0" type="line"/>
      <point x="197.75" y="577.0" type="line"/>
      <point x="197.75" y="700.0" type="line"/>
      <point x="74.0" y="700.0" type="line"/>
      <point x="74.0" y="577.0" type="line"/>
    </contour>
  </outline>
</glyph>
<glyph name="guarani.ss02" format="2">
  <advance width="665.7750000000001"/>
  <anchor x="378.0" y="653.0" name="_TopCurrency"/>
  <outline>
    <contour>
      <point x="374.75" y="24.925" type="curve" smooth="yes"/>
      <point x="486.15" y="24.925"/>
      <point x="576.9" y="67.65"/>
      <point x="632.1" y="126.925" type="curve"/>
      <point x="632.1" y="391.925" type="line"/>
      <point x="336.675" y="391.925" type="line"/>
      <point x="336.675" y="288.15" type="line"/>
      <point x="568.15" y="288.15" type="line"/>
      <point x="518.3" y="307.1" type="line"/>
      <point x="518.3" y="134.875" type="line"/>
      <point x="550.425" y="201.575" type="line"/>
      <point x="506.6" y="157.35000000000002"/>
      <point x="443.175" y="135.05"/>
      <point x="377.1" y="135.05" type="curve" smooth="yes"/>
      <point x="256.3" y="135.05"/>
      <point x="164.05" y="221.875"/>
      <point x="164.05" y="350.625" type="curve" smooth="yes"/>
      <point x="164.05" y="483.07500000000005"/>
      <point x="252.25" y="567.525"/>
      <point x="377.775" y="567.525" type="curve" smooth="yes"/>
      <point x="447.0" y="567.525"/>
      <point x="498.75" y="540.275"/>
      <point x="537.125" y="499.625" type="curve"/>
      <point x="620.1" y="574.625" type="line"/>
      <point x="558.075" y="645.6500000000001"/>
      <point x="472.70000000000005" y="677.65"/>
      <point x="374.75" y="677.65" type="curve" smooth="yes"/>
      <point x="194.4" y="677.65"/>
      <point x="44.925" y="535.9"/>
      <point x="44.925" y="350.625" type="curve" smooth="yes"/>
      <point x="44.925" y="158.925"/>
      <point x="188.95" y="24.925"/>
    </contour>
    <component base="verticalTopCurrencycomb" xOffset="378.0"/>
    <component base="verticalBottomCurrencycomb" xOffset="378.0"/>
  </outline>
</glyph>
<glyph name="one.numr" format="2">
  <advance width="200.75"/>
  <outline>
    <contour>
      <point x="78.17500000000001" y="315.0" type="line"/>
      <point x="150.75" y="315.0" type="line"/>
      <point x="150.75" y="706.675" type="line"/>
      <point x="2.725" y="646.2" type="line"/>
      <point x="29.825" y="577.625" type="line"/>
      <point x="77.175" y="597.975" type="line"/>
      <point x="78.17500000000001" y="596.975" type="line"/>
    </contour>
  </outline>
</glyph>
<glyph name="one.ss10" format="2">
  <advance width="317.275"/>
  <outline>
    <contour>
      <point x="115.2" y="0.0" type="line"/>
      <point x="233.95" y="0.0" type="line"/>
      <point x="233.95" y="699.6750000000001" type="line"/>
      <point x="15.45" y="700.0" type="line"/>
      <point x="15.45" y="585.525" type="line"/>
      <point x="115.2" y="585.525" type="line"/>
      <point x="115.2" y="580.85" type="line"/>
    </contour>
  </outline>
</glyph>
<glyph name="one.tf" format="2">
  <advance width="596.0"/>
  <outline>
    <contour>
      <point x="259.42499999999995" y="0.0" type="line"/>
      <point x="381.22499999999997" y="0.0" type="line"/>
      <point x="381.22499999999997" y="713.0" type="line"/>
      <point x="50.675" y="577.75" type="line"/>
      <point x="92.175" y="475.375" type="line"/>
      <point x="256.075" y="543.0" type="line"/>
      <point x="259.42499999999995" y="538.65" type="line"/>
    </contour>
    <contour>
      <point x="106.375" y="-0.675" type="line"/>
      <point x="532.8499999999999" y="-0.675" type="line"/>
      <point x="532.8499999999999" y="107.775" type="line"/>
      <point x="106.375" y="107.775" type="line"/>
    </contour>
  </outline>
</glyph>
<glyph name="tildecomb.case" format="2">
  <anchor x="0.0" y="700.0" name="_top"/>
  <anchor x="0.0" y="820.875" name="top"/>
  <outline>
    <contour>
      <point x="59.95" y="734.65" type="curve" smooth="yes"/>
      <point x="114.65" y="734.65"/>
      <point x="156.725" y="777.05"/>
      <point x="156.725" y="832.425" type="curve"/>
      <point x="91.2" y="832.425" type="line"/>
      <point x="91.2" y="818.125"/>
      <point x="81.225" y="804.4749999999999"/>
      <point x="60.925000000000004" y="804.4749999999999" type="curve" smooth="yes"/>
      <point x="16.275" y="804.4749999999999"/>
      <point x="14.05" y="839.075"/>
      <point x="-61.25" y="839.075" type="curve" smooth="yes"/>
      <point x="-115.625" y="839.075"/>
      <point x="-157.7" y="796.675"/>
      <point x="-157.7" y="741.3" type="curve"/>
      <point x="-92.825" y="741.3" type="line"/>
      <point x="-92.825" y="755.6"/>
      <point x="-82.525" y="769.25"/>
      <point x="-61.575" y="769.25" type="curve" smooth="yes"/>
      <point x="-17.25" y="769.25"/>
      <point x="-15.35" y="734.65"/>
    </contour>
  </outline>
</glyph>
<glyph name="zero.tf" format="2">
  <advance width="596.0"/>
  <outline>
    <contour>
      <point x="298.0" y="-13.0" type="curve" smooth="yes"/>
      <point x="452.17500000000007" y="-12.675"/>
      <point x="560.25" y="103.475"/>
      <point x="560.25" y="252.5" type="curve" smooth="yes"/>
      <point x="560.25" y="449.40000000000003" type="line" smooth="yes"/>
      <point x="560.25" y="594.525"/>
      <point x="452.17500000000007" y="711.325"/>
      <point x="298.0" y="711.0" type="curve" smooth="yes"/>
      <point x="143.825" y="710.675"/>
      <point x="35.75" y="594.525"/>
      <point x="35.75" y="447.77500000000003" type="curve" smooth="yes"/>
      <point x="35.75" y="250.22500000000002" type="line" smooth="yes"/>
      <point x="35.75" y="103.475"/>
      <point x="143.825" y="-13.325"/>
    </contour>
    <contour>
      <point x="298.0" y="99.775" type="curve" smooth="yes"/>
      <point x="211.02500000000003" y="99.775"/>
      <point x="162.22500000000002" y="167.1"/>
      <point x="162.22500000000002" y="264.92499999999995" type="curve" smooth="yes"/>
      <point x="162.22500000000002" y="435.975" type="line" smooth="yes"/>
      <point x="162.22500000000002" y="537.95"/>
      <point x="211.02500000000003" y="598.225"/>
      <point x="298.0" y="598.225" type="curve" smooth="yes"/>
      <point x="384.975" y="598.225"/>
      <point x="433.775" y="536.975"/>
      <point x="433.775" y="434.35" type="curve" smooth="yes"/>
      <point x="433.775" y="262.975" type="line" smooth="yes"/>
      <point x="433.775" y="166.125"/>
      <point x="384.975" y="99.775"/>
    </contour>
  </outline>
</glyph>
